<svg id="svg" version="1.1" width="512" height="512" xmlns="http://www.w3.org/2000/svg"><path d="M144.692 2.970 C 135.883 6.416,129.688 12.163,125.258 21.000 L 122.500 26.500 122.000 97.618 L 121.500 168.737 126.279 164.440 C 142.609 149.755,172.113 135.939,196.593 131.512 C 229.757 125.514,265.892 130.644,293.689 145.296 L 303.500 150.467 372.000 150.983 C 435.478 151.462,440.741 151.632,443.794 153.299 C 449.076 156.183,451.178 160.454,450.731 167.399 C 450.402 172.508,449.931 173.672,447.215 176.100 C 445.490 177.641,442.279 179.386,440.079 179.979 C 437.411 180.697,419.942 180.963,387.592 180.778 C 348.451 180.554,339.562 180.740,341.479 181.744 C 344.159 183.147,354.669 196.792,359.204 204.756 C 360.985 207.882,363.069 210.211,364.349 210.504 C 365.532 210.774,383.150 211.109,403.500 211.248 C 436.939 211.476,440.817 211.673,443.794 213.299 C 448.229 215.720,450.992 220.515,450.996 225.800 C 451.001 231.435,448.916 235.268,444.274 238.153 C 440.569 240.457,439.911 240.509,408.500 241.000 L 376.500 241.500 376.782 244.000 C 377.037 246.255,380.295 263.243,381.518 268.694 C 382.009 270.884,382.078 270.890,411.255 271.194 C 439.941 271.494,440.572 271.545,444.274 273.847 C 448.916 276.732,451.001 280.565,450.996 286.200 C 450.992 291.485,448.229 296.280,443.794 298.701 C 440.902 300.281,436.912 300.561,411.083 301.000 L 381.665 301.500 379.256 314.000 C 377.932 320.875,376.770 327.400,376.674 328.500 C 376.504 330.453,377.260 330.512,408.500 331.000 C 442.738 331.535,443.681 331.675,448.441 336.935 C 451.354 340.153,451.721 349.527,449.099 353.701 C 444.889 360.404,444.626 360.446,402.500 361.000 C 379.753 361.299,363.884 361.901,362.966 362.500 C 362.122 363.050,359.891 365.975,358.008 369.000 C 347.894 385.243,330.788 403.374,315.230 414.338 C 274.840 442.802,223.584 450.436,175.897 435.090 C 170.615 433.391,165.651 432.000,164.865 432.000 C 164.080 432.000,154.049 441.427,142.575 452.949 L 121.713 473.897 122.267 480.005 C 123.383 492.311,132.809 504.540,144.571 508.941 L 150.136 511.023 318.318 510.761 L 486.500 510.500 491.217 508.321 C 498.188 505.100,505.566 497.695,509.026 490.446 L 512.000 484.214 512.000 302.640 L 512.000 121.066 457.750 120.783 C 405.256 120.509,403.388 120.434,400.035 118.465 C 398.130 117.345,395.655 114.870,394.535 112.965 C 392.574 109.626,392.482 107.533,392.000 55.500 L 391.500 1.500 270.500 1.295 C 154.165 1.097,149.315 1.162,144.692 2.970 M422.000 49.753 C 422.000 81.107,422.278 90.169,423.252 90.543 C 423.940 90.807,442.278 90.906,464.002 90.762 L 503.500 90.500 462.750 49.972 L 422.000 9.443 422.000 49.753 M353.794 93.299 C 363.413 98.550,363.413 113.450,353.794 118.701 C 350.702 120.390,345.681 120.500,272.000 120.500 C 198.319 120.500,193.298 120.390,190.206 118.701 C 181.991 114.216,180.421 100.875,187.425 95.063 C 192.175 91.120,193.654 91.055,273.500 91.281 C 345.497 91.486,350.714 91.617,353.794 93.299 M209.221 159.000 C 153.653 166.837,111.087 206.740,99.347 262.000 C 96.481 275.486,96.880 299.259,100.210 313.500 C 104.837 333.289,112.995 350.203,125.672 366.293 C 130.496 372.416,132.000 373.794,132.000 372.089 C 132.000 368.063,137.030 354.646,141.218 347.500 C 145.976 339.383,157.515 327.513,164.595 323.454 C 167.293 321.907,170.738 319.791,172.251 318.752 L 175.002 316.863 172.138 312.681 C 164.344 301.302,160.945 290.328,160.917 276.444 C 160.892 264.705,162.027 259.216,166.486 249.500 C 174.567 231.891,190.679 218.241,209.000 213.482 C 217.562 211.258,232.543 211.243,240.920 213.451 C 259.256 218.283,275.178 231.471,283.090 248.379 C 287.677 258.180,288.975 264.304,288.988 276.198 C 289.002 289.037,286.368 298.700,279.954 309.334 C 277.693 313.083,276.073 316.749,276.354 317.480 C 276.635 318.212,279.689 320.316,283.141 322.155 C 291.386 326.549,303.595 338.612,308.791 347.500 C 312.975 354.655,318.000 368.073,318.000 372.089 C 318.000 373.794,319.504 372.416,324.328 366.293 C 337.015 350.191,345.178 333.259,349.780 313.500 C 351.979 304.059,352.343 300.162,352.349 286.000 C 352.357 268.278,351.208 260.709,346.204 245.500 C 332.152 202.796,294.651 169.832,249.500 160.499 C 240.094 158.554,218.165 157.738,209.221 159.000 M212.000 243.213 C 204.288 246.170,195.075 255.494,192.162 263.288 C 189.298 270.953,189.262 280.952,192.071 288.459 C 194.795 295.742,202.490 304.114,209.702 307.642 C 217.695 311.553,229.134 312.085,237.500 308.934 C 245.719 305.839,254.819 296.791,257.838 288.712 C 260.735 280.958,260.741 271.055,257.853 263.336 C 254.839 255.282,245.609 246.017,237.712 243.122 C 229.998 240.293,219.518 240.330,212.000 243.213 M191.487 342.771 C 179.605 346.945,169.608 355.315,164.829 365.089 C 161.882 371.116,157.345 390.850,158.321 393.394 C 160.064 397.937,181.507 407.292,199.000 411.141 C 212.684 414.152,236.013 414.391,249.000 411.652 C 265.076 408.261,286.150 399.817,290.471 395.036 C 292.433 392.864,292.432 392.808,290.177 381.775 C 288.932 375.682,286.695 368.198,285.206 365.146 C 281.187 356.903,273.590 349.660,264.322 345.235 L 256.500 341.500 226.500 341.255 C 200.013 341.038,195.913 341.216,191.487 342.771 M48.868 418.750 C -0.232 467.973,0.000 467.680,0.000 480.384 C 0.000 492.283,5.404 501.636,15.800 507.728 C 22.273 511.522,33.222 512.046,41.500 508.958 C 47.167 506.844,49.960 504.268,91.759 462.610 C 116.101 438.349,136.014 417.755,136.009 416.845 C 136.004 415.934,132.963 412.932,129.250 410.174 C 121.440 404.371,105.122 387.894,99.613 380.250 C 97.532 377.363,95.082 375.000,94.169 375.000 C 93.256 375.000,72.870 394.688,48.868 418.750 M443.794 393.299 C 453.413 398.550,453.413 413.450,443.794 418.701 C 440.766 420.355,436.988 420.500,397.000 420.500 C 348.908 420.500,349.656 420.593,345.287 414.102 C 341.435 408.379,342.531 399.424,347.648 394.833 C 351.406 391.460,356.082 391.137,398.500 391.319 C 436.838 391.484,440.787 391.657,443.794 393.299 " stroke="none" fill="#ffffff" fill-rule="evenodd"/></svg>