<svg id="svg" version="1.1" width="512" height="158" xmlns="http://www.w3.org/2000/svg"><path d="M342.000 3.587 C 319.180 11.169,303.549 24.924,293.450 46.309 C 288.008 57.832,286.572 64.759,286.572 79.500 C 286.572 95.004,288.053 101.503,294.547 114.500 C 302.761 130.940,314.031 142.369,329.500 149.948 C 344.228 157.163,348.006 158.000,365.841 158.000 C 380.206 158.000,382.505 157.752,389.607 155.433 C 402.509 151.222,418.005 141.837,417.995 138.240 C 417.988 135.729,404.111 120.000,401.902 120.000 C 400.893 120.000,397.273 121.806,393.858 124.014 C 386.148 128.996,379.798 130.997,369.500 131.687 C 359.187 132.378,351.222 130.863,342.500 126.554 C 333.309 122.012,328.925 118.243,322.969 109.761 C 316.547 100.617,313.918 93.453,313.257 83.292 C 312.273 68.160,316.770 54.870,326.500 44.155 C 337.190 32.382,350.008 26.769,366.000 26.855 C 377.425 26.917,384.314 28.675,392.200 33.543 C 396.349 36.104,398.762 37.001,400.304 36.557 C 402.779 35.844,416.000 20.617,416.000 18.480 C 416.000 15.324,401.523 7.222,388.336 2.998 C 379.827 0.272,377.773 0.004,365.738 0.049 C 353.358 0.095,351.819 0.324,342.000 3.587 M3.212 3.188 C 1.843 4.557,1.503 24.670,2.813 26.732 C 3.393 27.644,10.216 28.034,29.048 28.232 L 54.500 28.500 54.795 74.500 C 54.992 105.077,54.732 121.740,54.020 124.200 C 51.902 131.523,43.392 134.771,36.089 131.045 C 30.463 128.175,28.590 123.843,29.518 115.848 L 30.195 110.013 22.990 103.256 C 13.026 93.913,11.630 93.119,9.135 95.378 C 8.053 96.357,6.201 99.540,5.019 102.452 C -3.253 122.834,5.426 144.696,25.750 154.677 C 30.405 156.962,33.137 157.565,40.094 157.844 C 47.928 158.157,49.375 157.902,56.433 154.963 C 69.303 149.606,78.115 138.979,81.013 125.322 C 81.664 122.259,81.939 98.983,81.768 61.500 L 81.500 2.500 42.962 2.238 C 13.822 2.041,4.128 2.272,3.212 3.188 M150.500 79.072 C 147.750 79.595,139.875 80.130,133.000 80.261 C 120.877 80.493,120.310 80.603,114.204 83.914 C 102.522 90.248,95.977 98.799,93.418 111.069 C 89.746 128.681,97.767 145.522,114.235 154.777 L 119.970 158.000 146.485 158.000 L 173.000 158.000 173.122 128.250 C 173.256 95.537,173.020 79.729,172.387 79.070 C 171.517 78.165,155.267 78.167,150.500 79.072 M193.721 78.613 C 193.324 79.009,193.000 97.033,193.000 118.667 L 193.000 158.000 206.500 158.000 L 220.000 158.000 220.000 137.468 C 220.000 114.434,220.635 111.412,226.190 108.026 C 232.676 104.071,242.674 106.563,245.150 112.750 C 245.847 114.492,246.178 122.797,246.054 135.397 C 245.901 150.960,246.146 155.477,247.179 156.132 C 248.692 157.091,269.029 157.310,271.418 156.393 C 273.752 155.497,273.742 116.894,271.407 108.932 C 267.753 96.477,260.980 88.547,249.000 82.696 C 243.048 79.788,241.531 79.493,231.000 79.187 C 224.675 79.003,213.862 78.637,206.971 78.372 C 200.079 78.108,194.117 78.216,193.721 78.613 M458.300 80.805 C 444.064 85.880,434.381 97.813,431.785 113.481 C 429.059 129.926,439.294 147.645,455.843 155.131 C 461.399 157.644,463.366 158.000,471.697 158.000 C 480.738 158.000,481.561 157.815,488.354 154.265 C 500.191 148.079,506.593 140.237,510.612 127.000 C 512.533 120.674,512.332 115.343,509.895 107.915 C 505.698 95.126,500.070 88.622,488.102 82.730 C 482.605 80.023,480.421 79.535,472.602 79.265 C 465.660 79.026,462.266 79.391,458.300 80.805 M140.088 108.280 C 144.333 111.141,145.966 114.322,145.985 119.765 C 146.018 129.226,134.458 135.223,126.190 130.034 C 117.843 124.795,118.522 111.288,127.325 107.459 C 131.991 105.430,136.266 105.705,140.088 108.280 M478.960 107.636 C 484.552 110.939,487.016 119.739,483.814 124.968 C 480.412 130.523,470.651 132.967,465.457 129.563 C 461.976 127.283,459.008 122.147,459.004 118.398 C 458.999 114.698,462.587 109.022,466.030 107.279 C 469.491 105.528,475.681 105.698,478.960 107.636 " stroke="none" fill="#ffffff" fill-rule="evenodd"/></svg>